<svg width="340" height="106" viewBox="0 0 340 106" fill="none" xmlns="http://www.w3.org/2000/svg">
<path d="M42.4739 52.324L60.2662 80.2806C60.6943 80.9246 61.4434 81.3001 62.2194 81.2733H68.8279C70.0586 81.3001 71.0753 80.3075 71.1021 79.0464C71.1021 79.0196 71.1021 79.0196 71.1021 78.9927V19.7796C71.1021 18.5186 70.0586 17.4991 68.8012 17.5259C68.1055 17.5259 67.4634 17.8479 67.0353 18.3844L42.4739 49.6142C41.9388 50.4191 41.9388 51.4923 42.4739 52.324Z" fill="#5757F5"/>
<path d="M22.4608 81.2732H34.2065C35.4372 81.3001 36.4539 80.3074 36.4806 79.0464C36.4806 79.0195 36.4806 79.0195 36.4806 78.9927V63.9681C36.4539 62.707 35.4104 61.6876 34.1529 61.7144C33.4841 61.7144 32.8419 62.0364 32.4138 62.5729L20.6682 77.5976C19.9191 78.6171 20.1331 80.0659 21.1498 80.8171C21.5244 81.1122 21.9792 81.2732 22.4608 81.2732Z" fill="#5757F5"/>
<path d="M232.25 47.4939C232.116 47.3329 231.955 47.1719 231.821 47.0377L231.58 46.8231L231.447 46.7158C230.885 46.2328 230.27 45.8304 229.628 45.4816C228.932 45.0523 228.182 44.7035 227.406 44.4352C226.631 44.1401 225.801 43.9254 224.971 43.7914C222.832 43.4158 220.664 43.5231 218.577 44.1133C217.346 44.4621 216.142 44.9719 215.019 45.6158C213.922 46.2596 212.905 47.0377 211.996 47.95C211.086 48.8621 210.31 49.8817 209.641 50.9548C208.973 52.0549 208.437 53.2354 208.089 54.4964C207.367 57.0721 207.367 59.8086 208.089 62.3843C208.437 63.6185 208.973 64.799 209.641 65.8991C210.31 66.999 211.112 67.9918 211.996 68.9039C212.905 69.8162 213.922 70.5943 215.019 71.2381C216.142 71.8552 217.32 72.365 218.55 72.7407C220.691 73.3845 222.938 73.4918 225.132 73.0626C225.962 72.9285 226.791 72.687 227.593 72.365C228.343 72.043 229.066 71.6942 229.787 71.265C230.484 70.8626 231.152 70.3796 231.794 69.8967C231.981 69.7357 232.142 69.5747 232.303 69.3869L232.383 69.3064C232.543 69.1186 232.651 68.9039 232.731 68.6893L232.757 68.5016C232.784 68.2064 232.704 67.9113 232.543 67.643L232.464 67.5357C232.409 67.4552 232.356 67.3478 232.276 67.2673L232.089 66.999C231.714 66.4892 231.34 65.9527 230.965 65.4966C230.804 65.3088 230.59 65.1478 230.376 65.0673C230.136 64.9868 229.895 64.9868 229.681 65.0673C229.359 65.2015 229.066 65.4161 228.797 65.6844L228.45 65.9796C228.102 66.2479 227.942 66.4356 227.46 66.7844C227.032 67.1064 226.577 67.3747 226.096 67.6161C225.587 67.8845 225.026 68.0723 224.437 68.2064C222.563 68.6088 220.583 68.4211 218.818 67.6161C217.694 67.1064 216.651 66.382 215.795 65.4966C214.912 64.5844 214.19 63.538 213.681 62.3575C212.611 59.9428 212.611 57.2062 213.681 54.7916C214.19 53.611 214.885 52.5379 215.795 51.6256C216.678 50.7402 217.721 50.0159 218.845 49.4524C220.477 48.6743 222.323 48.4597 224.089 48.8353C224.678 48.9695 225.266 49.1573 225.828 49.3719C226.363 49.6134 226.872 49.8817 227.379 50.1768C228.424 50.7939 229.573 52.5379 230.724 51.1427L232.356 48.9426C232.517 48.728 232.57 48.4597 232.517 48.1915C232.49 47.95 232.409 47.7085 232.25 47.4939Z" fill="#242A35"/>
<path d="M131.542 70.9705L113.616 30.1088C113.375 29.4917 112.786 29.0893 112.118 29.0625H109.255C108.586 29.0625 107.997 29.4649 107.757 30.0551L89.7772 70.9437C89.5364 71.4535 89.5631 72.0437 89.8841 72.5266C90.1785 73.0095 90.7136 73.3047 91.2755 73.3047H93.9243C94.5931 73.3315 95.1817 72.9291 95.4225 72.3119L99.7302 62.224H121.509L125.79 72.3119C126.03 72.9291 126.646 73.3315 127.315 73.3583H129.911C130.445 73.3852 130.98 73.1437 131.302 72.7144C131.676 72.2047 131.756 71.5608 131.542 70.9705ZM102.031 56.9922L102.111 56.8312L110.753 36.6821L119.422 56.9922H102.031Z" fill="#242A35"/>
<path d="M295.526 53.9068C295.071 52.3238 294.375 50.8214 293.466 49.4799C292.797 48.5677 291.994 47.736 291.138 47.0115C290.309 46.2872 289.372 45.6701 288.355 45.2408C287.365 44.7578 286.322 44.3555 285.252 44.0871C282.871 43.4969 280.355 43.5505 277.974 44.2213C276.77 44.57 275.594 45.053 274.523 45.7237C273.453 46.3945 272.463 47.1725 271.58 48.0848C270.697 48.9702 269.975 49.9897 269.386 51.0897C268.771 52.2165 268.289 53.4239 267.968 54.658C267.406 56.6434 267.299 58.7093 267.647 60.7484C267.727 61.5533 267.888 62.3314 268.102 63.0825C268.556 64.6656 269.252 66.168 270.161 67.5363C270.831 68.4485 271.634 69.2803 272.49 70.0046C273.319 70.7291 274.256 71.3462 275.272 71.8022C276.262 72.2852 277.305 72.6876 278.375 72.9559C282.015 73.8413 285.894 73.2511 289.105 71.3193C290.175 70.6486 291.165 69.8705 292.048 68.9851C292.904 68.1266 293.599 67.1339 294.161 66.0875L294.215 65.9802C294.429 65.685 294.456 65.3094 294.295 64.9874C294.161 64.7461 293.921 64.5851 293.626 64.5851H289.345C288.971 64.5851 288.623 64.7461 288.409 65.0143C287.874 65.6582 287.232 66.2485 286.536 66.7314C285.787 67.2143 284.957 67.5899 284.101 67.8314C282.201 68.3949 280.168 68.3144 278.322 67.6704C277.332 67.3216 276.396 66.8119 275.566 66.168C274.737 65.5241 274.068 64.7192 273.559 63.7801C273.131 62.7874 272.811 61.7411 272.624 60.6679L272.597 60.5337H272.73L294.723 60.48C295.633 60.48 296.141 59.9167 296.141 58.924C296.248 57.18 296.034 55.5166 295.526 53.9068ZM290.844 55.8653L273.052 55.9458L273.105 55.7849C273.4 54.7654 273.854 53.8263 274.416 52.941C275.111 51.8945 276.022 51.0092 277.038 50.2848C277.787 49.8018 278.617 49.4262 279.473 49.1847C281.372 48.6214 283.405 48.7019 285.252 49.3457C286.242 49.6945 287.178 50.2043 288.007 50.8482C288.838 51.4921 289.506 52.3238 290.014 53.2361C290.443 53.9873 290.763 54.819 290.951 55.6776L290.977 55.8118H290.844V55.8653Z" fill="#242A35"/>
<path d="M163.14 68.9046C164.023 67.9925 164.799 66.9729 165.468 65.8997C166.11 64.7729 166.619 63.5923 166.966 62.3314C167.689 59.7557 167.689 57.0191 166.966 54.4435C166.619 53.2093 166.11 52.002 165.468 50.8751C164.183 48.675 162.337 46.8238 160.117 45.5091C159.02 44.8652 157.843 44.3555 156.612 44.0067C153.455 43.0945 150.083 43.3091 147.06 44.5969C145.776 45.1872 144.599 45.9384 143.528 46.8238L143.342 46.9848V45.4287C143.422 44.7043 142.913 44.0603 142.191 43.9798C142.083 43.9798 141.977 43.9798 141.896 43.9798H139.649C138.899 43.8993 138.231 44.4091 138.151 45.1604C138.151 45.2409 138.151 45.3482 138.151 45.4287V79.7975C138.124 80.5756 138.74 81.2464 139.515 81.2732C139.542 81.2732 139.542 81.2732 139.569 81.2732H141.869C142.271 81.2732 142.672 81.139 142.967 80.8707C143.234 80.6024 143.395 80.2268 143.368 79.8243V69.7901L143.556 69.9511C144.599 70.8364 145.776 71.5876 147.034 72.1511C150.057 73.4657 153.428 73.6803 156.586 72.7413C157.816 72.3926 159.02 71.8828 160.143 71.2388C161.214 70.5949 162.231 69.8169 163.14 68.9046ZM156.317 67.4559C153.99 68.529 151.341 68.529 149.014 67.4559C147.863 66.9461 146.846 66.1948 145.99 65.2558C145.107 64.3436 144.412 63.2705 143.929 62.0899C142.94 59.702 142.94 56.9922 143.929 54.6044C144.438 53.4507 145.133 52.4043 145.99 51.4922C146.846 50.5799 147.889 49.8556 149.014 49.3458C151.314 48.2726 153.99 48.2726 156.317 49.3458C157.441 49.8824 158.458 50.6068 159.314 51.4922C160.17 52.4043 160.866 53.4507 161.347 54.6044C162.364 56.9922 162.364 59.702 161.347 62.0899C160.839 63.2436 160.17 64.3436 159.314 65.2827C158.458 66.1948 157.441 66.9461 156.317 67.4559Z" fill="#242A35"/>
<path d="M177.321 44.0067H175.074C174.324 43.9262 173.656 44.4359 173.575 45.1872C173.575 45.2945 173.575 45.4019 173.575 45.4823V79.8243C173.575 80.2 173.709 80.5756 173.976 80.8707C174.244 81.139 174.618 81.2732 174.993 81.2732H177.294C177.696 81.2732 178.097 81.139 178.391 80.8707C178.659 80.6024 178.819 80.2268 178.792 79.8243V69.7901L178.98 69.9511C180.023 70.8364 181.2 71.5876 182.457 72.1511C185.482 73.4657 188.852 73.6803 192.009 72.7413C193.24 72.3926 194.444 71.8828 195.568 71.2388C196.665 70.5949 197.681 69.7901 198.591 68.9046C199.474 67.9925 200.25 66.9729 200.892 65.8997C201.535 64.7729 202.043 63.5923 202.391 62.3314C203.113 59.7557 203.113 57.0191 202.391 54.4435C202.043 53.2093 201.535 52.002 200.892 50.8751C199.608 48.675 197.762 46.8238 195.568 45.5091C194.471 44.8652 193.293 44.3555 192.063 44.0067C188.906 43.0945 185.535 43.3091 182.512 44.5969C181.227 45.1872 180.049 45.9384 178.98 46.8238L178.766 47.0384V45.4823C178.873 44.7579 178.364 44.0871 177.641 44.0067C177.535 44.0067 177.427 44.0067 177.321 44.0067ZM179.354 54.658C179.863 53.5044 180.558 52.458 181.414 51.5458C182.271 50.6336 183.314 49.9093 184.437 49.3726C186.739 48.2994 189.414 48.2994 191.742 49.3726C192.865 49.9093 193.91 50.6336 194.766 51.519C195.621 52.4312 196.318 53.4776 196.799 54.6312C197.815 57.0191 197.815 59.7289 196.799 62.1167C196.318 63.2973 195.621 64.3704 194.766 65.3095C193.91 66.2217 192.92 66.9729 191.795 67.5095C189.467 68.5827 186.792 68.5827 184.492 67.5095C183.341 66.9998 182.324 66.2485 181.468 65.3095C180.585 64.3973 179.89 63.3241 179.408 62.1436C178.391 59.7557 178.364 57.0459 179.354 54.658Z" fill="#242A35"/>
<path d="M261.921 45.0798C262.002 44.3554 261.466 43.6847 260.744 43.6042C260.637 43.6042 260.53 43.6042 260.423 43.6042H258.149C257.426 43.5237 256.784 44.0335 256.677 44.7578C256.677 44.8652 256.677 44.9725 256.677 45.053V61.5265C256.704 62.4923 256.49 63.4582 256.062 64.3168C255.714 65.1216 255.179 65.8192 254.51 66.3827C253.868 66.9192 253.146 67.3485 252.37 67.6436C250.604 68.3144 248.624 68.2071 246.938 67.3753C246.136 66.9728 245.44 66.3827 244.932 65.6582C244.396 64.9606 244.022 64.1826 243.834 63.324C243.62 62.4654 243.514 61.5801 243.487 60.6947V45.5091C243.514 44.9993 243.406 44.5164 243.139 44.0871C242.764 43.7115 242.229 43.5237 241.721 43.5774H240.089C239.607 43.5505 239.126 43.7384 238.778 44.0871C238.403 44.4895 238.216 45.0261 238.27 45.5896V60.7484C238.242 62.4118 238.511 64.0485 238.992 65.6314C239.474 67.107 240.222 68.4754 241.212 69.6558C242.202 70.8096 243.433 71.7485 244.824 72.3388C247.259 73.3316 249.909 73.573 252.476 73.0633C253.172 72.9023 253.841 72.6608 254.483 72.3657C255.098 72.0705 255.66 71.7217 256.142 71.2657L256.49 70.9437L256.677 70.7559V71.9095C256.677 72.2583 256.811 72.5803 257.052 72.8218C257.319 73.1706 257.748 73.3584 258.202 73.3316H260.503C260.878 73.3316 261.252 73.1974 261.519 72.9291C261.814 72.6608 261.975 72.2852 261.921 71.8827V45.0798Z" fill="#242A35"/>
<path d="M319.579 61.2048C319.097 60.2121 318.402 59.3267 317.546 58.6023C316.609 57.8243 315.566 57.2072 314.442 56.751C313.184 56.2144 311.873 55.812 310.536 55.5438C309.893 55.3828 309.251 55.195 308.609 54.9535C308.047 54.7388 307.513 54.4705 307.004 54.1217C306.335 53.7193 305.8 53.1022 305.506 52.3778C305.345 51.8412 305.345 51.2509 305.506 50.7144C305.693 50.0973 306.442 48.4339 309.412 48.246C312.248 48.0582 313.666 49.5607 314.148 50.2314C314.228 50.3119 314.924 51.2241 315.405 51.7875C315.485 51.868 315.592 51.9485 315.699 52.0022C316.1 52.1632 316.582 52.1095 316.931 51.8412L318.642 50.5534C319.017 50.3119 319.258 49.9095 319.258 49.4533V49.3997C319.178 49.0777 319.044 48.7558 318.856 48.4607C318.348 47.7363 317.786 47.0387 317.198 46.368C316.662 45.7509 316.047 45.2143 315.378 44.7581C314.656 44.3289 313.906 43.9801 313.077 43.7655C310.776 43.1752 308.342 43.2825 306.095 44.0338C304.944 44.3826 303.901 44.9459 302.99 45.724C302.135 46.4485 301.438 47.3606 300.957 48.3802C300.02 50.4461 299.967 52.8339 300.877 54.9266C301.305 55.8656 301.921 56.6974 302.723 57.395C303.579 58.1193 304.489 58.7364 305.478 59.2462C306.629 59.7828 307.86 60.2389 309.09 60.5608C309.465 60.6413 309.813 60.7487 310.214 60.856C310.589 60.9633 310.964 61.0706 311.339 61.1511C312.007 61.3121 312.649 61.5536 313.264 61.8756C313.773 62.117 314.228 62.4658 314.602 62.9219C315.271 63.8878 315.244 65.1756 314.549 66.1146C314.174 66.5976 313.72 67.0001 313.184 67.3219C312.649 67.6439 312.06 67.8854 311.472 68.0195C310.455 68.261 309.385 68.261 308.368 68.0195C307.833 67.8854 307.325 67.6976 306.816 67.4293C306.309 67.1878 305.853 66.8659 305.425 66.4903C305.05 66.061 304.703 65.578 304.435 65.0682C304.302 64.7731 304.115 64.5049 303.873 64.2902C303.472 63.9414 302.911 63.8878 302.455 64.1292L300.395 65.0951C300.208 65.1756 300.075 65.2829 299.914 65.417C299.806 65.5244 299.7 65.6585 299.646 65.7927C299.566 66.0073 299.539 66.222 299.592 66.4366C299.619 66.6513 299.673 66.8659 299.753 67.0805C300.101 68.0195 300.609 68.905 301.251 69.683C301.947 70.5415 302.83 71.2391 303.793 71.7488C304.703 72.2854 305.693 72.6879 306.71 72.9026C309.064 73.466 311.552 73.3855 313.88 72.6879C315.11 72.3391 316.261 71.7488 317.251 70.9708C318.214 70.2464 318.99 69.2806 319.525 68.1805C320.596 65.9805 320.596 63.4317 319.579 61.2048Z" fill="#242A35"/>
</svg>
