<svg width="40" height="41" viewBox="0 0 40 41" fill="none" xmlns="http://www.w3.org/2000/svg">
<g id="image">
<path id="Vector" fill-rule="evenodd" clip-rule="evenodd" d="M4.11498 11.7051C4.23109 11.5887 4.36903 11.4964 4.52089 11.4333C4.67276 11.3703 4.83556 11.3379 4.99998 11.3379C5.16439 11.3379 5.3272 11.3703 5.47906 11.4333C5.63092 11.4964 5.76886 11.5887 5.88498 11.7051L20 25.8226L34.115 11.7051C34.2312 11.5889 34.3692 11.4967 34.521 11.4338C34.6729 11.3709 34.8356 11.3385 35 11.3385C35.1643 11.3385 35.3271 11.3709 35.4789 11.4338C35.6308 11.4967 35.7688 11.5889 35.885 11.7051C36.0012 11.8213 36.0934 11.9593 36.1563 12.1112C36.2192 12.263 36.2516 12.4258 36.2516 12.5901C36.2516 12.7545 36.2192 12.9172 36.1563 13.0691C36.0934 13.2209 36.0012 13.3589 35.885 13.4751L20.885 28.4751C20.7689 28.5915 20.6309 28.6839 20.4791 28.7469C20.3272 28.8099 20.1644 28.8424 20 28.8424C19.8356 28.8424 19.6728 28.8099 19.5209 28.7469C19.369 28.6839 19.2311 28.5915 19.115 28.4751L4.11498 13.4751C3.99857 13.359 3.90621 13.2211 3.84319 13.0692C3.78018 12.9173 3.74774 12.7545 3.74774 12.5901C3.74774 12.4257 3.78018 12.2629 3.84319 12.111C3.90621 11.9592 3.99857 11.8212 4.11498 11.7051Z" fill="#212529"/>
</g>
</svg>
