<svg width="340" height="105" viewBox="0 0 340 105" fill="none" xmlns="http://www.w3.org/2000/svg">
<g clip-path="url(#clip0_1_478)">
<mask id="mask0_1_478" style="mask-type:luminance" maskUnits="userSpaceOnUse" x="5" y="37" width="261" height="26">
<path d="M265.625 37.9736H5.84714V62.5516H265.625V37.9736Z" fill="white"/>
</mask>
<g mask="url(#mask0_1_478)">
<path d="M20.79 56.2588C16.7177 56.2588 13.959 54.0843 13.959 50.2626C13.959 46.4408 16.7177 44.2664 20.79 44.2664C23.1245 44.2664 25.0356 45.0213 26.424 46.5912C26.8642 47.0888 27.5789 47.2932 28.1673 46.9863L32.3933 44.7827C33.1379 44.3944 33.4106 43.452 32.8705 42.8078C30.5246 40.0095 26.1951 37.9736 20.8886 37.9736C11.8899 37.9736 5.84714 42.3885 5.84714 50.2626C5.84714 58.1368 11.8899 62.5517 20.593 62.5517C26.1732 62.5517 30.5693 60.5296 32.965 57.6814C33.506 57.0381 33.2385 56.0942 32.4963 55.7016L28.2972 53.48C27.7099 53.1693 26.9927 53.3699 26.5546 53.8705C25.0948 55.5379 23.146 56.2588 20.79 56.2588Z" fill="#FF5721"/>
<path d="M58.3195 38.7314C57.5098 38.7314 56.8531 39.39 56.8531 40.2023V46.9351H44.8004V40.2023C44.8004 39.39 44.144 38.7314 43.3343 38.7314H38.2533C37.4435 38.7314 36.7871 39.39 36.7871 40.2023V60.3232C36.7871 61.1352 37.4435 61.7939 38.2533 61.7939H43.3343C44.144 61.7939 44.8004 61.1352 44.8004 60.3232V53.2608H56.8531V60.3232C56.8531 61.1352 57.5098 61.7939 58.3195 61.7939H63.4004C64.2102 61.7939 64.8668 61.1352 64.8668 60.3232V40.2023C64.8668 39.39 64.2102 38.7314 63.4004 38.7314H58.3195Z" fill="#FF5721"/>
<path d="M77.3349 61.7939C78.1447 61.7939 78.8008 61.1352 78.8008 60.3232V40.2023C78.8008 39.39 78.1447 38.7314 77.3349 38.7314H72.2536C71.4437 38.7314 70.7876 39.39 70.7876 40.2023V60.3232C70.7876 61.1352 71.4437 61.7939 72.2536 61.7939H77.3349Z" fill="#FF5721"/>
<path d="M92.3503 55.6329V40.2023C92.3503 39.39 91.6937 38.7314 90.8843 38.7314H85.803C84.9932 38.7314 84.337 39.39 84.337 40.2023V60.3232C84.337 61.1352 84.9932 61.7939 85.803 61.7939H105.63C106.44 61.7939 107.096 61.1352 107.096 60.3232V57.1038C107.096 56.2914 106.44 55.6329 105.63 55.6329H92.3503Z" fill="#FF5721"/>
<path d="M117.391 61.7939C118.201 61.7939 118.857 61.1352 118.857 60.3232V40.2023C118.857 39.39 118.201 38.7314 117.391 38.7314H112.31C111.5 38.7314 110.844 39.39 110.844 40.2023V60.3232C110.844 61.1352 111.5 61.7939 112.31 61.7939H117.391Z" fill="#FF5721"/>
<path d="M150.604 38.7314H135.945C135.135 38.7314 134.478 39.39 134.478 40.2023V60.3232C134.478 61.1352 135.135 61.7939 135.945 61.7939H141.025C141.835 61.7939 142.491 61.1352 142.491 60.3232V55.3694H150.604C157.205 55.3694 161.055 52.6348 161.055 47.0339C161.055 41.466 157.205 38.7314 150.604 38.7314ZM149.946 49.9991H142.491V44.4971H149.946C152.016 44.4971 153.493 45.1889 153.493 47.2316C153.493 49.2743 152.016 49.9991 149.946 49.9991Z" fill="#FF5721"/>
<path d="M172.022 61.7939C172.831 61.7939 173.488 61.1352 173.488 60.3232V40.2023C173.488 39.39 172.831 38.7314 172.022 38.7314H166.94C166.13 38.7314 165.475 39.39 165.475 40.2023V60.3232C165.475 61.1352 166.13 61.7939 166.94 61.7939H172.022Z" fill="#FF5721"/>
<path d="M195.149 38.7314H180.49C179.68 38.7314 179.025 39.39 179.025 40.2023V60.3232C179.025 61.1352 179.68 61.7939 180.49 61.7939H185.571C186.381 61.7939 187.038 61.1352 187.038 60.3232V55.3694H195.149C201.75 55.3694 205.601 52.6348 205.601 47.0339C205.601 41.466 201.75 38.7314 195.149 38.7314ZM194.492 49.9991H187.038V44.4971H194.492C196.561 44.4971 198.039 45.1889 198.039 47.2316C198.039 49.2743 196.561 49.9991 194.492 49.9991Z" fill="#FF5721"/>
<path d="M216.953 55.9953V52.7996H229.38C230.19 52.7996 230.845 52.1411 230.845 51.3287V48.9331C230.845 48.1207 230.19 47.4622 229.38 47.4622H216.953V44.53H232.533C233.342 44.53 233.998 43.8715 233.998 43.0592V40.2023C233.998 39.39 233.342 38.7314 232.533 38.7314H210.57C209.761 38.7314 209.105 39.39 209.105 40.2023V60.3232C209.105 61.1352 209.761 61.7939 210.57 61.7939H232.894C233.704 61.7939 234.359 61.1352 234.359 60.3232V57.4661C234.359 56.6539 233.704 55.9953 232.894 55.9953H216.953Z" fill="#FF5721"/>
<path d="M263.702 61.7939C264.956 61.7939 265.631 60.3174 264.813 59.3639L260.428 54.2492C263.876 53.096 265.625 50.6581 265.625 46.8692C265.625 41.3671 261.315 38.7314 255.173 38.7314H240.316C239.507 38.7314 238.851 39.39 238.851 40.2023V60.3232C238.851 61.1352 239.507 61.7939 240.316 61.7939H245.332C246.142 61.7939 246.798 61.1352 246.798 60.3232V55.0069H252.184L256.887 60.7245C257.444 61.4015 258.274 61.7939 259.149 61.7939H263.702ZM246.798 49.6366V44.4971H254.516C256.585 44.4971 258.062 45.0901 258.062 47.0668C258.062 49.0437 256.585 49.6366 254.516 49.6366H246.798Z" fill="#FF5721"/>
</g>
<mask id="mask1_1_478" style="mask-type:luminance" maskUnits="userSpaceOnUse" x="246" y="15" width="88" height="88">
<path d="M333.256 15.6299H246.365V102.323H333.256V15.6299Z" fill="white"/>
</mask>
<g mask="url(#mask1_1_478)">
<path d="M321.788 40.1351C322.642 40.5595 323.694 40.32 324.172 39.4951C324.635 38.6942 324.356 37.6814 323.563 37.2032C322.594 36.6189 321.592 36.0838 320.56 35.6007C319.629 35.1645 319.159 34.0959 319.469 33.1168C321.095 27.9744 321.413 22.445 320.408 17.1509C320.141 15.7439 318.432 15.3119 317.524 16.4211C317.276 16.723 317.035 17.0295 316.799 17.3406C316.571 17.6399 316.447 18.0037 316.427 18.3788C316.162 23.219 314.837 27.7776 312.682 31.8285C312.314 32.5184 311.539 32.8726 310.762 32.7764C309.018 32.56 307.255 32.4831 305.498 32.5461C305.006 32.5636 304.585 32.8962 304.413 33.3563C304.123 34.1303 304.617 35.0023 305.438 35.1141C311.115 35.8874 316.659 37.5872 321.788 40.1351Z" fill="#FF5721"/>
<path fill-rule="evenodd" clip-rule="evenodd" d="M302.663 61.1679C301.975 62.2176 302.448 63.6466 303.654 63.9997C308.07 65.2916 312.563 66.075 317.055 66.3708C318.998 66.499 320.838 65.5177 321.84 63.8518C323.093 61.7689 324.26 59.6287 325.335 57.4352C326.099 55.8771 326.817 54.2925 327.487 52.6828C328.279 50.7803 327.649 48.5852 325.934 47.4386C317.738 41.961 308.195 38.8812 298.232 38.5705C295.979 38.5002 294.117 40.1946 293.67 42.3991C293.552 42.9837 293.428 43.5663 293.297 44.1466C293.291 44.178 293.283 44.2095 293.276 44.2409V44.2422C293.263 44.3048 293.248 44.3675 293.233 44.4302C293.194 44.6041 293.154 44.779 293.112 44.9528C292.868 45.9909 292.607 47.0219 292.324 48.0449C291.568 50.7938 290.678 53.4879 289.661 56.1188C289.326 56.9865 289.653 57.977 290.465 58.4343C291.821 59.1984 293.206 59.9129 294.616 60.5753C295.538 61.0083 296.629 60.6004 297.045 59.673C297.687 58.2449 298.286 56.7981 298.841 55.3337C299.628 53.2543 300.33 51.1404 300.937 48.9938C301.28 47.7844 301.594 46.5649 301.875 45.3364C301.995 44.8309 302.45 44.4715 302.97 44.4974C303.079 44.5028 303.187 44.5086 303.296 44.5149C305.446 44.6371 307.124 44.7477 309.153 45.8073C309.748 46.1189 309.982 46.8377 309.737 47.4633C307.791 52.4438 305.504 56.828 302.663 61.1679Z" fill="#FF5721"/>
<path d="M291.824 65.5888C292.833 66.0902 293.224 67.3423 292.618 68.2906C290.718 71.2676 288.629 74.1245 286.377 76.845C285.745 77.6079 286.737 78.6973 287.485 78.0489C290.701 75.2604 293.727 72.2534 296.524 69.0467C297.051 68.4425 297.897 68.2253 298.654 68.4953C303.363 70.1778 308.186 71.2623 313.024 71.7762C314.269 71.9085 314.903 73.3692 314.079 74.3095C310.45 78.4488 306.427 82.2356 302.069 85.6118C300.273 87.0029 297.989 87.6254 295.746 87.2612C289.317 86.2182 283.082 84.0138 277.439 80.7672C276.438 80.1908 276.244 78.8488 276.981 77.96C277.357 77.506 277.73 77.0479 278.096 76.5863C281.067 72.8504 283.722 68.8684 286.028 64.6928C286.556 63.737 287.775 63.4 288.726 63.9403C289.743 64.5181 290.776 65.0678 291.824 65.5888Z" fill="#FF5721"/>
<path d="M273.453 84.783C272.7 84.2897 271.703 84.3647 271.043 84.9738C267.56 88.1801 263.817 91.1017 259.855 93.694C257.681 95.1173 255.442 96.4414 253.148 97.6611C250.943 98.8322 251.569 102.233 254.064 102.159C262.917 101.9 271.727 100.286 280.084 97.3425C281.969 96.6783 283.822 95.9508 285.644 95.1615C286.752 94.6821 287.845 94.1806 288.927 93.6565C289.818 93.2253 289.653 91.9155 288.698 91.6531C283.299 90.1691 278.135 87.8511 273.453 84.783Z" fill="#FF5721"/>
</g>
</g>
<defs>
<clipPath id="clip0_1_478">
<rect width="340" height="104.61" fill="white" transform="translate(0 0.229492)"/>
</clipPath>
</defs>
</svg>
