<svg width="420" height="215" viewBox="0 0 420 215" fill="none" xmlns="http://www.w3.org/2000/svg">
<path d="M274.534 45.2236L273.012 42.2408C261.6 19.8535 238.919 5.94336 213.829 5.94336C177.203 5.94336 147.411 35.7363 147.411 72.3613C147.411 108.987 177.203 138.78 213.829 138.78C238.919 138.78 261.6 124.869 273.019 102.482L274.541 99.4993L247.403 72.3613L274.541 45.2236H274.534ZM263.21 101.206C252.959 118.781 234.325 129.558 213.821 129.558C182.282 129.558 156.619 103.895 156.619 72.3545C156.619 40.8143 182.288 15.1577 213.829 15.1577C234.333 15.1577 252.959 25.9349 263.218 43.5104L240.885 65.8431L213.829 38.7872L180.261 72.3545L213.829 105.922L240.885 78.866L263.218 101.199L263.21 101.206ZM234.359 72.3545L213.821 92.8922L193.284 72.3545L213.821 51.8169L234.359 72.3545Z" fill="#3640E8"/>
<path d="M4.64737 176.096C4.64737 163.916 13.677 154.474 26.2699 154.474C33.8703 154.474 40.5832 158.335 44.1463 164.275L37.0811 168.373C35.0625 164.688 31.0184 162.433 26.2699 162.433C18.1343 162.433 12.7829 168.076 12.7829 176.096C12.7829 184.117 18.1275 189.698 26.2699 189.698C31.0184 189.698 35.1234 187.442 37.0811 183.818L44.1463 187.916C40.6442 193.858 33.9312 197.719 26.2699 197.719C13.677 197.719 4.64737 188.215 4.64737 176.096Z" fill="#3640E8"/>
<path d="M47.1539 182.036C47.1539 173.183 54.104 166.354 62.8357 166.354C71.5673 166.354 78.5783 173.183 78.5783 182.036C78.5783 190.89 71.5673 197.718 62.8357 197.718C54.104 197.718 47.1539 190.89 47.1539 182.036ZM70.917 182.036C70.917 177.226 67.4149 173.839 62.8357 173.839C58.2564 173.839 54.8153 177.226 54.8153 182.036C54.8153 186.846 58.3175 190.232 62.8357 190.232C67.3539 190.232 70.917 186.846 70.917 182.036Z" fill="#3640E8"/>
<path d="M111.446 178.649V196.884H103.784V179.597C103.784 175.559 101.345 173.48 97.9043 173.48C94.1651 173.48 91.3675 175.675 91.3675 180.843V196.884H83.7061V167.18H91.3675V170.506C93.149 167.831 96.2384 166.348 100.221 166.348C106.514 166.348 111.446 170.744 111.446 178.642V178.649Z" fill="#3640E8"/>
<path d="M127.696 174.551V186.906C127.696 190.118 130.014 190.171 134.409 189.935V196.885C123.659 198.07 120.035 194.927 120.035 186.906V174.551H114.866V167.187H120.035V161.186L127.696 158.869V167.187H134.409V174.551H127.696Z" fill="#3640E8"/>
<path d="M154.318 190.768C157.285 190.768 159.663 189.521 160.97 187.801L167.148 191.364C164.357 195.401 159.899 197.718 154.197 197.718C144.218 197.718 137.918 190.89 137.918 182.036C137.918 173.183 144.272 166.354 153.6 166.354C162.392 166.354 168.631 173.304 168.631 182.036C168.631 183.168 168.509 184.176 168.333 185.186H145.939C147.008 189.108 150.274 190.768 154.311 190.768H154.318ZM160.97 179.245C160.022 174.971 156.811 173.243 153.607 173.243C149.509 173.243 146.717 175.438 145.824 179.245H160.97Z" fill="#3640E8"/>
<path d="M201.58 178.649V196.884H193.919V179.597C193.919 175.559 191.48 173.48 188.039 173.48C184.3 173.48 181.502 175.675 181.502 180.843V196.884H173.84V167.18H181.502V170.506C183.284 167.831 186.373 166.348 190.355 166.348C196.649 166.348 201.58 170.744 201.58 178.642V178.649Z" fill="#3640E8"/>
<path d="M217.831 174.551V186.906C217.831 190.118 220.148 190.171 224.544 189.935V196.885C213.793 198.07 210.17 194.927 210.17 186.906V174.551H205V167.187H210.17V161.186L217.831 158.869V167.187H224.544V174.551H217.831Z" fill="#3640E8"/>
<path d="M252.418 188.214C252.418 194.629 246.837 197.718 240.476 197.718C234.535 197.718 230.139 195.225 227.999 190.646L234.65 186.906C235.483 189.345 237.502 190.768 240.469 190.768C242.908 190.768 244.567 189.935 244.567 188.214C244.567 183.879 229.245 186.256 229.245 175.797C229.245 169.742 234.414 166.354 240.53 166.354C245.339 166.354 249.499 168.549 251.815 172.654L245.279 176.217C244.384 174.314 242.725 173.189 240.523 173.189C238.62 173.189 237.076 174.023 237.076 175.627C237.076 180.024 252.398 177.294 252.398 188.221L252.418 188.214Z" fill="#3640E8"/>
<path d="M287.358 167.188V208.766H279.697V193.382C277.557 196.112 274.414 197.718 270.071 197.718C262.112 197.718 255.575 190.89 255.575 182.036C255.575 173.183 262.112 166.354 270.071 166.354C274.407 166.354 277.557 167.96 279.697 170.69V167.188H287.358ZM279.697 182.036C279.697 177.044 276.195 173.663 271.501 173.663C266.806 173.663 263.243 177.05 263.243 182.036C263.243 187.022 266.745 190.408 271.501 190.408C276.256 190.408 279.697 187.022 279.697 182.036Z" fill="#3640E8"/>
<path d="M321.635 167.188V196.892H313.974V193.566C312.192 196.242 309.103 197.725 305.12 197.725C298.827 197.725 293.895 193.329 293.895 185.43V167.195H301.557V184.482C301.557 188.519 303.995 190.599 307.437 190.599C311.176 190.599 313.974 188.404 313.974 183.236V167.195H321.635V167.188Z" fill="#3640E8"/>
<path d="M358.675 167.188V196.891H351.014V193.389C348.873 196.066 345.668 197.725 341.334 197.725C333.435 197.725 326.898 190.896 326.898 182.044C326.898 173.19 333.435 166.361 341.334 166.361C345.668 166.361 348.88 168.028 351.014 170.697V167.195H358.675V167.188ZM351.014 182.036C351.014 177.044 347.511 173.664 342.756 173.664C338.001 173.664 334.559 177.051 334.559 182.036C334.559 187.022 338.061 190.409 342.756 190.409C347.45 190.409 351.014 187.022 351.014 182.036Z" fill="#3640E8"/>
<path d="M382.167 166.592V175.147C378.184 174.673 373.137 176.454 373.137 182.693V196.891H365.476V167.188H373.137V172.296C374.681 168.258 378.421 166.592 382.167 166.592Z" fill="#3640E8"/>
<path d="M401.04 190.768C404.006 190.768 406.384 189.521 407.691 187.801L413.87 191.364C411.078 195.401 406.621 197.718 400.917 197.718C390.939 197.718 384.64 190.89 384.64 182.036C384.64 173.183 390.994 166.354 400.321 166.354C409.114 166.354 415.353 173.304 415.353 182.036C415.353 183.168 415.231 184.176 415.055 185.186H392.66C393.73 189.108 396.995 190.768 401.032 190.768H401.04ZM407.691 179.245C406.743 174.971 403.532 173.243 400.328 173.243C396.23 173.243 393.439 175.438 392.545 179.245H407.691Z" fill="#3640E8"/>
</svg>
