<svg width="709" height="233" viewBox="0 0 709 233" fill="none" xmlns="http://www.w3.org/2000/svg">
<path d="M17.2619 7.46835H26.954V32.2999C26.9422 34.6581 26.3467 36.7333 25.1676 38.5255C24.0003 40.306 22.385 41.6973 20.3216 42.6995C18.27 43.6899 15.9059 44.1852 13.2294 44.1852C10.9066 44.1852 8.78421 43.7843 6.86229 42.9825C4.94038 42.1689 3.40757 40.8955 2.26385 39.1622C1.12013 37.4172 0.554172 35.1533 0.565962 32.3707H10.3996C10.4349 33.2786 10.5882 34.045 10.8594 34.6699C11.1424 35.2948 11.5315 35.7665 12.0267 36.0848C12.5337 36.3914 13.1468 36.5447 13.8661 36.5447C14.5971 36.5447 15.2102 36.3855 15.7055 36.0671C16.2125 35.7488 16.5957 35.2771 16.8551 34.6522C17.1145 34.0155 17.2501 33.2314 17.2619 32.2999V7.46835ZM66.704 25.5791C66.704 29.6116 65.9199 33.0133 64.3517 35.7842C62.7835 38.5432 60.667 40.6361 58.0023 42.0628C55.3376 43.4777 52.3663 44.1852 49.0884 44.1852C45.7869 44.1852 42.8039 43.4718 40.1391 42.0451C37.4862 40.6066 35.3756 38.5078 33.8074 35.7488C32.251 32.9779 31.4728 29.588 31.4728 25.5791C31.4728 21.5467 32.251 18.1509 33.8074 15.3918C35.3756 12.621 37.4862 10.5281 40.1391 9.11318C42.8039 7.68648 45.7869 6.97313 49.0884 6.97313C52.3663 6.97313 55.3376 7.68648 58.0023 9.11318C60.667 10.5281 62.7835 12.621 64.3517 15.3918C65.9199 18.1509 66.704 21.5467 66.704 25.5791ZM56.5874 25.5791C56.5874 23.4096 56.2985 21.582 55.7208 20.0964C55.1548 18.5989 54.3118 17.467 53.1916 16.7006C52.0833 15.9224 50.7155 15.5333 49.0884 15.5333C47.4612 15.5333 46.0876 15.9224 44.9675 16.7006C43.8591 17.467 43.0161 18.5989 42.4383 20.0964C41.8724 21.582 41.5894 23.4096 41.5894 25.5791C41.5894 27.7487 41.8724 29.5821 42.4383 31.0796C43.0161 32.5652 43.8591 33.6972 44.9675 34.4754C46.0876 35.2418 47.4612 35.625 49.0884 35.625C50.7155 35.625 52.0833 35.2418 53.1916 34.4754C54.3118 33.6972 55.1548 32.5652 55.7208 31.0796C56.2985 29.5821 56.5874 27.7487 56.5874 25.5791ZM81.0874 7.46835V43.6899H71.2538V7.46835H81.0874ZM117.088 7.46835V43.6899H108.881L95.7936 24.6595H95.5813V43.6899H85.7477V7.46835H94.0957L106.971 26.4281H107.254V7.46835H117.088ZM153.097 7.46835H162.931V30.6728C162.931 33.4319 162.271 35.8195 160.95 37.8358C159.641 39.8402 157.814 41.3907 155.467 42.4873C153.121 43.572 150.397 44.1144 147.296 44.1144C144.172 44.1144 141.436 43.572 139.09 42.4873C136.743 41.3907 134.916 39.8402 133.607 37.8358C132.31 35.8195 131.661 33.4319 131.661 30.6728V7.46835H141.495V29.8239C141.495 30.944 141.743 31.9462 142.238 32.8305C142.733 33.7031 143.417 34.3869 144.289 34.8822C145.174 35.3774 146.176 35.625 147.296 35.625C148.428 35.625 149.43 35.3774 150.303 34.8822C151.175 34.3869 151.859 33.7031 152.354 32.8305C152.85 31.9462 153.097 30.944 153.097 29.8239V7.46835ZM187.13 18.7876C187.036 17.6085 186.594 16.6888 185.804 16.0285C185.025 15.3682 183.84 15.0381 182.249 15.0381C181.235 15.0381 180.403 15.1619 179.755 15.4095C179.118 15.6453 178.647 15.9696 178.34 16.3823C178.033 16.7949 177.874 17.2666 177.863 17.7972C177.839 18.2334 177.916 18.6284 178.092 18.9821C178.281 19.3241 178.576 19.6365 178.977 19.9195C179.378 20.1907 179.891 20.4383 180.515 20.6623C181.14 20.8864 181.883 21.0868 182.744 21.2637L185.715 21.9004C187.72 22.3249 189.435 22.8849 190.862 23.5806C192.289 24.2763 193.456 25.0957 194.364 26.039C195.272 26.9705 195.938 28.0199 196.362 29.1872C196.799 30.3545 197.023 31.6279 197.034 33.0074C197.023 35.3892 196.427 37.4054 195.248 39.0561C194.069 40.7068 192.383 41.9626 190.19 42.8233C188.009 43.684 185.385 44.1144 182.319 44.1144C179.171 44.1144 176.424 43.6487 174.078 42.7172C171.743 41.7857 169.927 40.3531 168.63 38.4194C167.345 36.4739 166.697 33.986 166.685 30.9558H176.023C176.082 32.0641 176.359 32.9956 176.854 33.7502C177.35 34.5048 178.045 35.0767 178.941 35.4658C179.849 35.8549 180.928 36.0494 182.178 36.0494C183.227 36.0494 184.106 35.9197 184.813 35.6604C185.521 35.401 186.057 35.0413 186.423 34.5815C186.788 34.1216 186.977 33.5969 186.989 33.0074C186.977 32.4532 186.794 31.9698 186.44 31.5571C186.098 31.1327 185.532 30.7553 184.742 30.4252C183.953 30.0833 182.885 29.7649 181.541 29.4701L177.933 28.6919C174.726 27.9963 172.197 26.8349 170.346 25.2077C168.506 23.5688 167.593 21.3344 167.604 18.5046C167.593 16.2054 168.206 14.195 169.444 12.4736C170.694 10.7403 172.421 9.39026 174.626 8.42341C176.843 7.45656 179.384 6.97313 182.249 6.97313C185.173 6.97313 187.702 7.46245 189.836 8.4411C191.97 9.41974 193.615 10.7993 194.771 12.5797C195.938 14.3483 196.527 16.4176 196.539 18.7876H187.13ZM220.106 43.6899H209.495L221.45 7.46835H234.892L246.848 43.6899H236.236L228.313 17.4434H228.03L220.106 43.6899ZM218.125 29.3994H238.076V36.7569H218.125V29.3994ZM244.774 15.3918V7.46835H276.256V15.3918H265.361V43.6899H255.669V15.3918H244.774Z" fill="#212529"/>
<g clip-path="url(#clip0_47_2015)">
<g clip-path="url(#clip1_47_2015)">
<g clip-path="url(#clip2_47_2015)">
<mask id="mask0_47_2015" style="mask-type:luminance" maskUnits="userSpaceOnUse" x="0" y="59" width="709" height="174">
<path d="M708.636 59.2107H0.0234985V232.085H708.636V59.2107Z" fill="white"/>
</mask>
<g mask="url(#mask0_47_2015)">
<path d="M1.15387 64.9688H17.3194V109.259H25.2473V64.9688H50.4789V181.51H25.2473V133.018H17.3194V181.51H1.15387V64.9688Z" fill="#323232"/>
<path d="M147.31 123.163C147.31 160.698 134.922 184.257 98.8673 184.257C66.0948 184.257 53.8545 161.105 53.8545 122.9C53.8545 87.0422 66.0948 63.3955 100.4 63.3955C134.705 63.3955 147.31 87.4655 147.31 123.171V123.163ZM88.0516 122.676C88.0516 149.549 89.5612 157.328 96.9777 157.328C104.395 157.328 106.795 149.852 106.795 122.389C106.795 96.9449 104.481 90.4044 96.893 90.4044C89.9404 90.4044 88.0439 96.7692 88.0439 122.668L88.0516 122.676Z" fill="#323232"/>
<path d="M174.725 95.212H146.319V64.9768H252.997V95.212H220.86V181.517H174.725V95.212Z" fill="#323232"/>
<path d="M300.619 145.764C301.726 150.675 304.559 156.266 313.069 156.266C319.533 156.266 323.001 153.558 323.001 149.485C323.001 145.412 321.895 142.194 303.77 138.64C260.267 130.167 256.009 113.061 256.009 97.8154C256.009 75.7978 274.288 59.1948 311.342 59.1948C345.229 59.1948 368.665 72.2441 370.399 96.1144H323.791C322.846 91.0273 320.323 87.138 312.914 87.138C307.556 87.138 304.877 89.3422 304.877 92.7362C304.877 96.8012 309.608 98.8296 321.91 101.209C362.579 108.836 373.449 123.738 373.449 142.545C373.449 168.468 351.067 184.552 314.02 184.552C273.669 184.552 254.329 167.614 251.023 145.764H300.627H300.619Z" fill="#323232"/>
<path d="M417.107 162.71L413.956 181.517H368.912L400.284 64.9768H462.762L490.796 181.517H446.31L442.919 162.71H417.083H417.092H417.107ZM436.888 131.373C435.363 122.301 431.6 104.779 429.719 91.9058H430.269C428.372 105.29 425.469 119.737 423.378 131.373H436.904H436.896H436.888Z" fill="#323232"/>
<path d="M529.244 64.9688V147.553C529.244 153.926 535.043 157.304 540.3 157.304C545.208 157.304 551.038 154.101 551.038 147.553V64.9688H588.781V142.849C588.781 173.372 565.082 184.823 538.465 184.823C511.847 184.823 487.591 172.421 487.591 142.601V64.9688H529.244Z" fill="#323232"/>
<path d="M666.496 141.411V142.697C666.496 165.226 659.737 184.832 633.267 184.832C609.421 184.832 593.952 170.84 593.952 127.787V120.272C593.952 75.8857 613.068 62.0459 633.995 62.0459C659.93 62.0459 666.496 83.5763 666.496 103.398V104.899H636.294V102.99C636.294 92.896 634.916 89.0308 632.562 89.0308C630.642 89.0308 627.6 93.1117 627.6 119.25V127.691C627.6 155.204 630.224 158.908 632.516 158.908C635.04 158.908 636.426 154.62 636.426 143.44V141.411H666.504H666.496Z" fill="#323232"/>
<path d="M704.696 129.504H690.954V159.316H708.637L705.803 181.51H670.956V64.9688H705.648V87.162H690.954V107.327H704.696V129.52V129.504Z" fill="#323232"/>
<path d="M262.667 224.37V200.253H266.299V209.756C267.444 207.991 269.163 207.128 271.447 207.113C273.397 207.113 274.907 207.712 275.968 208.902C277.036 210.091 277.57 211.752 277.57 213.876V224.363H273.94V214.396C273.94 211.641 272.747 210.267 270.378 210.267C269.186 210.267 268.21 210.642 267.452 211.369C266.693 212.112 266.306 213.158 266.306 214.499V224.354H262.675L262.66 224.378L262.667 224.37Z" fill="#323232"/>
<path d="M294.735 222.302C293.125 223.963 291.089 224.794 288.65 224.794C286.211 224.794 284.175 223.963 282.541 222.302C280.915 220.641 280.103 218.517 280.103 215.953C280.103 213.389 280.923 211.273 282.541 209.628C284.167 207.975 286.195 207.145 288.65 207.145C291.104 207.145 293.125 207.975 294.735 209.628C296.345 211.282 297.151 213.389 297.151 215.953C297.151 218.517 296.345 220.641 294.735 222.302ZM285.197 220.178C286.064 221.224 287.202 221.743 288.65 221.743C290.098 221.743 291.235 221.224 292.103 220.178C292.97 219.132 293.403 217.718 293.403 215.945C293.403 214.172 292.97 212.79 292.095 211.752C291.22 210.706 290.074 210.187 288.665 210.187C287.257 210.187 286.079 210.698 285.212 211.728C284.345 212.759 283.911 214.164 283.911 215.945C283.911 217.726 284.345 219.132 285.212 220.178H285.197Z" fill="#323232"/>
<path d="M305.567 224.794C302.221 224.794 300.549 222.949 300.549 219.252V210.714H298.025V207.552H300.65L301.494 202.593H304.227V207.552H310.723V210.714H304.227V219.147C304.227 220.697 304.777 221.472 305.876 221.472C306.914 221.472 307.835 220.506 308.663 218.557L311.489 220.042C310.096 223.205 308.121 224.794 305.574 224.794H305.567Z" fill="#323232"/>
<path d="M312.65 232.077C311.04 232.077 309.7 231.622 308.648 230.687L309.995 227.733C310.645 228.515 311.357 228.915 312.108 228.915C313.123 228.915 313.626 228.244 313.626 226.902V207.544H317.257V226.974C317.257 228.771 316.823 230.073 315.956 230.879C315.089 231.67 313.982 232.069 312.65 232.085V232.069V232.077ZM315.438 204.709C314.833 204.733 314.261 204.51 313.827 204.086C313.626 203.887 313.456 203.638 313.347 203.351C313.239 203.079 313.177 202.784 313.192 202.48C313.192 202.185 313.239 201.881 313.347 201.602C313.456 201.331 313.626 201.067 313.827 200.867C314.269 200.46 314.841 200.22 315.438 200.22C316.033 200.22 316.607 200.444 317.048 200.867C317.265 201.075 317.435 201.323 317.543 201.602C317.652 201.881 317.714 202.185 317.698 202.48C317.698 202.777 317.652 203.079 317.528 203.335C317.404 203.59 317.249 203.854 317.032 204.054C316.815 204.261 316.576 204.429 316.297 204.541C316.018 204.652 315.732 204.7 315.43 204.7L315.438 204.709Z" fill="#323232"/>
<path d="M326.276 224.794C324.411 224.794 322.909 224.306 321.755 223.356C320.602 222.398 320.02 221.112 320.02 219.483C320.02 218.006 320.625 216.752 321.825 215.722C323.024 214.691 324.534 214.18 326.346 214.18C328.158 214.18 329.776 214.787 331.061 216.017V213.972C331.061 212.766 330.759 211.84 330.17 211.177C329.582 210.522 328.731 210.187 327.631 210.187C325.41 210.187 324.031 211.353 323.497 213.686L320.168 212.95C320.609 211.153 321.499 209.724 322.823 208.686C324.147 207.64 325.796 207.121 327.771 207.121C329.923 207.121 331.618 207.703 332.873 208.87C334.111 210.035 334.739 211.745 334.739 213.981V224.354H331.201V222.23C330.008 223.915 328.375 224.761 326.292 224.761L326.276 224.785V224.794ZM326.95 222.014C328.561 222.014 329.931 221.184 331.054 219.523V219.004C329.938 217.615 328.561 216.92 326.95 216.92C326.013 216.92 325.239 217.159 324.666 217.63C324.388 217.838 324.17 218.118 324.015 218.437C323.861 218.756 323.783 219.108 323.783 219.451C323.783 219.794 323.845 220.161 324 220.482C324.147 220.801 324.372 221.088 324.65 221.304C325.232 221.775 325.982 222.014 326.958 222.014L326.942 222.031L326.95 222.014Z" fill="#323232"/>
<path d="M338.254 224.37V207.544H341.791V210.459C342.698 208.334 344.231 207.272 346.437 207.272C347.738 207.272 348.821 207.703 349.657 208.59C350.51 209.468 350.935 210.65 350.935 212.128C350.935 213.006 350.78 213.893 350.501 214.731L347.172 214.379C347.242 213.924 347.281 213.461 347.304 212.991C347.304 211.249 346.607 210.387 345.222 210.387C344.284 210.387 343.487 210.898 342.853 211.928C342.218 212.958 341.892 214.308 341.892 216.009V224.37H338.261H338.254Z" fill="#323232"/>
<path d="M239.983 210.131C242.693 208.582 246.393 206.457 246.393 200.269H241.903C241.903 203.727 240.269 204.661 237.799 206.09C235.09 207.64 231.389 209.764 231.389 215.954H235.879C235.879 212.495 237.513 211.561 239.983 210.131Z" fill="#FF3C00"/>
<path d="M247.74 208.702C247.74 212.16 246.106 213.094 243.637 214.523C240.927 216.073 237.227 218.197 237.227 224.387H241.717C241.717 220.928 243.351 219.994 245.821 218.565C248.53 217.016 252.231 214.891 252.231 208.702H247.74Z" fill="#FF3C00"/>
<path d="M6.29461 206.457H11.0792L17.3504 224.346H13.4638L12.3489 221H5.02491L3.91004 224.346H0.0234985L6.29461 206.457ZM11.3967 218.157L8.79532 210.363H8.5708L5.96945 218.157H11.3967Z" fill="#323232"/>
<path d="M24.3802 215.402C24.3802 209.628 27.5545 206.226 32.5791 206.226C36.3728 206.226 39.4154 208.223 39.7638 212.663H36.1482C35.6527 210.443 34.2437 209.516 32.4552 209.516C29.4358 209.516 28.1661 212.096 28.1661 215.394C28.1661 218.692 29.4048 221.295 32.4552 221.295C34.2359 221.295 35.6527 220.377 36.1482 218.126H39.7638C39.4154 222.598 36.3728 224.594 32.5327 224.594C27.5545 224.594 24.3802 221.192 24.3802 215.394V215.402Z" fill="#323232"/>
<path d="M41.289 215.402C41.289 209.908 44.5562 206.226 49.5653 206.226C54.5745 206.226 57.8416 209.908 57.8416 215.402C57.8416 220.897 54.5745 224.602 49.5653 224.602C44.5562 224.602 41.289 220.873 41.289 215.402ZM49.5653 221.304C52.4144 221.304 54.0248 218.956 54.0248 215.402C54.0248 211.848 52.4144 209.525 49.5653 209.525C46.7162 209.525 45.1058 211.824 45.1058 215.402C45.1058 218.98 46.7162 221.304 49.5653 221.304Z" fill="#323232"/>
<path d="M60.1798 206.457H64.0431L71.0265 218.213H71.1039V206.457H74.8201V224.346H70.8097L63.9735 212.823H63.896V224.346H60.1798V206.457Z" fill="#323232"/>
<path d="M77.8008 206.457H89.2668V209.78H81.5093V213.972H87.9275V217.063H81.5093V224.346H77.7931V206.457H77.8008Z" fill="#323232"/>
<path d="M91.0477 206.457H102.885V209.78H94.756V213.789H102.142V216.776H94.756V221.016H103.133V224.339H91.0477V206.45V206.457Z" fill="#323232"/>
<path d="M105.51 206.457H112.524C117.131 206.457 119.136 208.933 119.136 212.439C119.136 214.971 118.067 217.015 115.668 217.91L119.307 224.346H115.637L112.339 218.389H109.218V224.346H105.502V206.457H105.51ZM112.4 215.067C114.429 215.067 115.327 214.02 115.327 212.431C115.327 210.842 114.436 209.772 112.4 209.772H109.226V215.059H112.4V215.067Z" fill="#323232"/>
<path d="M121.482 206.457H133.32V209.78H125.19V213.789H132.576V216.776H125.19V221.016H133.567V224.339H121.482V206.45V206.457Z" fill="#323232"/>
<path d="M135.952 206.457H139.815L146.799 218.213H146.876V206.457H150.593V224.346H146.581L139.745 212.823H139.668V224.346H135.952V206.457Z" fill="#323232"/>
<path d="M152.977 215.402C152.977 209.628 156.151 206.226 161.176 206.226C164.969 206.226 168.012 208.223 168.36 212.663H164.745C164.25 210.443 162.84 209.516 161.052 209.516C158.032 209.516 156.763 212.096 156.763 215.394C156.763 218.692 158.001 221.295 161.052 221.295C162.832 221.295 164.25 220.377 164.745 218.126H168.36C168.012 222.598 164.969 224.594 161.129 224.594C156.151 224.594 152.977 221.192 152.977 215.394V215.402Z" fill="#323232"/>
<path d="M170.614 206.457H182.451V209.78H174.322V213.789H181.707V216.776H174.322V221.016H182.698V224.339H170.614V206.45V206.457Z" fill="#323232"/>
<path d="M191.354 206.457H198.392C202.255 206.457 204.012 208.223 204.012 210.93C204.012 212.871 203.146 213.972 201.512 214.508C204.09 215.226 205.205 216.887 205.205 219.108C205.205 221.999 203.27 224.346 198.686 224.346H191.354V206.457ZM198.245 213.717C199.359 213.717 200.304 213.102 200.304 211.649C200.304 210.195 199.359 209.684 198.245 209.684H195.071V213.725H198.245V213.717ZM198.57 221.128C200.653 221.128 201.373 219.978 201.373 218.677C201.373 217.375 200.653 216.145 198.57 216.145H195.079V221.128H198.57Z" fill="#323232"/>
<path d="M211.468 217.774L205.198 206.457H209.409L213.373 214.077L217.361 206.457H221.572L215.301 217.774V224.339H211.461V217.774H211.468Z" fill="#323232"/>
</g>
</g>
</g>
</g>
<defs>
<clipPath id="clip0_47_2015">
<rect width="708.66" height="173.73" fill="white" transform="translate(0 58.6899)"/>
</clipPath>
<clipPath id="clip1_47_2015">
<rect width="708.66" height="173.73" fill="white" transform="translate(0 58.6899)"/>
</clipPath>
<clipPath id="clip2_47_2015">
<rect width="708.613" height="173.73" fill="white" transform="translate(0.0234985 58.6899)"/>
</clipPath>
</defs>
</svg>
