<svg width="340" height="106" viewBox="0 0 340 106" fill="none" xmlns="http://www.w3.org/2000/svg">
<path d="M117.448 44.4275C117.934 44.0389 118.419 43.5532 118.711 43.0675C120.168 41.319 121.139 39.2791 121.625 37.1421C122.305 33.6451 121.333 30.0509 118.905 27.4282C116.574 24.9997 113.659 24.0283 108.803 24.0283H89.2776L86.1691 41.5133H77.7181L79.9523 50.5472H84.6149L81.1179 70.5578H103.751C109.191 70.5578 113.271 69.1979 116.671 66.3809C119.682 63.7581 121.625 60.164 122.208 56.2784C122.985 52.49 121.819 48.5073 119.099 45.7874C118.614 45.1075 118.031 44.7189 117.448 44.4275ZM98.7972 33.0622H106.277C108.9 33.0622 109.774 33.7422 110.357 34.4222C110.94 35.1993 111.134 36.1707 110.94 37.1421C110.745 38.2106 110.162 39.2791 109.288 39.9591C108.414 40.7362 107.345 41.4162 104.626 41.4162H97.4373L98.7972 33.0622ZM111.425 55.8899C111.134 57.347 110.357 58.7069 109.288 59.6783C107.928 60.9411 106.18 61.5239 103.557 61.5239H93.8431L95.3973 52.5872L95.7859 50.5472H105.694C108.997 50.5472 110.065 51.5186 110.648 52.2957C111.425 53.2671 111.62 54.6271 111.425 55.8899Z" fill="url(#paint0_linear_1_468)"/>
<path d="M55.6675 24.0283L24.2917 70.5578H36.8226L44.2051 59.5812H62.4673L65.1871 70.5578H77.7181L66.0614 24.0283H55.6675ZM50.3249 50.5472L57.6103 39.7648L60.2331 50.5472H50.3249Z" fill="url(#paint1_linear_1_468)"/>
<path d="M181.074 24.0283H137.556L136.196 31.6052H153.681L146.784 70.5578H155.332L162.229 31.6052H179.714L181.074 24.0283Z" fill="url(#paint2_linear_1_468)"/>
<path d="M199.724 41.4162C197.199 37.1421 193.216 35.005 187.679 35.005C182.239 34.9079 176.994 37.1421 173.303 41.2219C169.514 45.3017 167.377 50.6444 167.474 56.1813C167.28 60.2611 168.64 64.2438 171.36 67.3522C173.983 70.1693 177.577 71.5292 182.239 71.5292C187.388 71.6264 192.245 69.3922 195.45 65.4095L194.77 70.4607H202.736L208.856 35.8792H200.696L199.724 41.4162ZM194.188 60.4554C191.759 62.981 188.359 64.3409 184.862 64.2438C179.131 64.2438 175.731 60.8439 175.731 55.2099C175.634 51.81 176.994 48.5073 179.325 46.0788C181.754 43.5532 185.154 42.1933 188.651 42.2904C194.479 42.2904 197.879 45.7874 197.879 51.3243C197.976 54.7242 196.616 58.0269 194.188 60.4554Z" fill="url(#paint3_linear_1_468)"/>
<path d="M230.518 41.2222C236.152 41.2222 238.289 42.6793 238.386 45.7878V46.1763L245.671 42.8736C244.991 37.2395 239.746 34.9082 231.198 34.9082C220.027 34.9082 213.13 38.7938 213.13 46.9534C213.13 52.5875 216.53 55.3074 223.718 55.8902L231.003 56.5702C234.403 56.8616 235.86 57.7358 235.86 60.0672C235.86 63.467 232.655 65.1184 226.243 65.1184C220.415 65.1184 218.084 63.7585 217.889 60.5529V60.2615C217.889 60.2615 210.507 63.467 210.507 63.5642C211.187 69.2954 216.53 71.4324 225.078 71.4324C237.026 71.4324 244.506 67.4497 244.506 58.9015C244.506 53.2675 241.3 51.0333 233.82 50.2561L226.632 49.5762C223.329 49.2848 221.678 48.1191 221.678 45.8849C221.581 42.8736 224.495 41.2222 230.518 41.2222Z" fill="url(#paint4_linear_1_468)"/>
<path d="M306.966 35.9765L290.549 62.1069L283.653 35.9765H266.168L267.916 26.0684L258.785 30.0511L257.716 35.9765H251.111L249.751 43.0677H256.454L253.928 58.0271C252.568 65.8953 256.259 71.5294 265.293 71.5294H272.287L270.15 63.9525H267.625C262.962 63.9525 261.408 62.0098 262.282 57.4442C263.156 52.8787 264.808 43.1648 264.808 43.1648H277.144L284.721 71.6265L278.601 81.3404H287.344L315.708 35.9765H306.966Z" fill="url(#paint5_linear_1_468)"/>
<path opacity="0.8" d="M64.2158 66.3808L75.3867 61.4267L74.901 59.5811H62.4673L64.2158 66.3808Z" fill="#004052"/>
<path opacity="0.8" d="M83.255 57.9294L95.3972 52.4897L95.7858 50.5469H84.6148L83.255 57.9294Z" fill="#004052"/>
<defs>
<linearGradient id="paint0_linear_1_468" x1="-21.3825" y1="92.0951" x2="350.135" y2="-46.493" gradientUnits="userSpaceOnUse">
<stop stop-color="#006C8A"/>
<stop offset="0.25" stop-color="#217981"/>
<stop offset="0.5" stop-color="#009CB2"/>
<stop offset="0.75" stop-color="#00D4D4"/>
<stop offset="1" stop-color="#00F3F3"/>
</linearGradient>
<linearGradient id="paint1_linear_1_468" x1="-25.3035" y1="81.6034" x2="346.214" y2="-56.9943" gradientUnits="userSpaceOnUse">
<stop stop-color="#006C8A"/>
<stop offset="0.25" stop-color="#217981"/>
<stop offset="0.5" stop-color="#009CB2"/>
<stop offset="0.75" stop-color="#00D4D4"/>
<stop offset="1" stop-color="#00F3F3"/>
</linearGradient>
<linearGradient id="paint2_linear_1_468" x1="-15.5535" y1="107.716" x2="355.954" y2="-30.8813" gradientUnits="userSpaceOnUse">
<stop stop-color="#006C8A"/>
<stop offset="0.25" stop-color="#217981"/>
<stop offset="0.5" stop-color="#009CB2"/>
<stop offset="0.75" stop-color="#00D4D4"/>
<stop offset="1" stop-color="#00F3F3"/>
</linearGradient>
<linearGradient id="paint3_linear_1_468" x1="-8.03066" y1="127.898" x2="363.487" y2="-10.6999" gradientUnits="userSpaceOnUse">
<stop stop-color="#006C8A"/>
<stop offset="0.25" stop-color="#217981"/>
<stop offset="0.5" stop-color="#009CB2"/>
<stop offset="0.75" stop-color="#00D4D4"/>
<stop offset="1" stop-color="#00F3F3"/>
</linearGradient>
<linearGradient id="paint4_linear_1_468" x1="-3.58003" y1="139.811" x2="367.927" y2="1.21387" gradientUnits="userSpaceOnUse">
<stop stop-color="#006C8A"/>
<stop offset="0.25" stop-color="#217981"/>
<stop offset="0.5" stop-color="#009CB2"/>
<stop offset="0.75" stop-color="#00D4D4"/>
<stop offset="1" stop-color="#00F3F3"/>
</linearGradient>
<linearGradient id="paint5_linear_1_468" x1="2.57982" y1="156.328" x2="374.088" y2="17.73" gradientUnits="userSpaceOnUse">
<stop stop-color="#006C8A"/>
<stop offset="0.25" stop-color="#217981"/>
<stop offset="0.5" stop-color="#009CB2"/>
<stop offset="0.75" stop-color="#00D4D4"/>
<stop offset="1" stop-color="#00F3F3"/>
</linearGradient>
</defs>
</svg>
