<svg width="411" height="254" viewBox="0 0 411 254" fill="none" xmlns="http://www.w3.org/2000/svg">
<path d="M219.621 158.779H216.697L216.677 161.702C216.508 187.758 222.977 210.025 238.072 225.777C253.186 241.551 276.487 250.313 308.949 250.313C339.542 250.313 364.077 242.41 381.032 229.021C398.035 215.591 407.242 196.764 407.242 175.439C407.242 153.442 398.203 139.077 387.567 130.264C381.771 125.463 375.503 122.313 370 120.455C383.478 113.802 399.213 98.4153 399.213 70.052C399.213 49.7118 390.49 33.0373 375.206 21.531C360.003 10.0855 338.495 3.87646 312.964 3.87646C283.318 3.87646 261.057 12.1498 246.216 27.1665C231.384 42.1745 224.372 63.5036 224.372 88.7875V91.7308H227.316H284.86H287.722L287.803 88.8704C288.119 77.6689 291.862 71.1768 296.396 67.4275C301.022 63.6034 306.887 62.2894 311.96 62.2894C316.928 62.2894 322.377 63.4655 326.495 66.3555C330.464 69.14 333.44 73.6699 333.44 81.0926C333.44 84.3739 333.233 88.9159 329.966 92.7268C326.743 96.4863 319.903 100.23 304.934 100.23H291.552H288.608V103.174V146.667V149.61H291.552H307.611C321.125 149.61 328.8 152.63 333.097 156.572C337.338 160.462 338.793 165.72 338.793 171.424C338.793 179.865 335.038 184.965 329.877 188.105C324.53 191.358 317.522 192.569 311.291 192.569C304.681 192.569 297.145 191.424 291.277 187.153C285.577 183.004 280.937 175.524 280.778 161.688L280.745 158.779H277.835H219.621ZM3.36835 126.928C3.36835 174.662 16.9245 205.618 36.3281 224.63C55.7003 243.613 80.5177 250.313 102.331 250.313C124.635 250.313 149.541 243.62 168.88 224.629C188.246 205.61 201.628 174.651 201.628 126.928C201.628 79.5321 188.243 48.6598 168.88 29.6447C149.546 10.6575 124.643 3.87646 102.331 3.87646C80.5099 3.87646 55.6964 10.6643 36.3281 29.6423C16.9274 48.652 3.36835 79.521 3.36835 126.928ZM102.331 192.904C94.8489 192.904 89.1408 190.704 84.6983 187.079C80.2087 183.415 76.8307 178.142 74.3357 171.736C69.3202 158.855 68.138 142.096 68.138 126.928C68.138 111.928 69.3202 95.253 74.3347 82.4144C76.8287 76.0297 80.2067 70.7662 84.6973 67.106C89.1398 63.4853 94.8489 61.2857 102.331 61.2857C109.904 61.2857 115.68 63.4901 120.169 67.1145C124.704 70.7767 128.11 76.0403 130.623 82.4219C135.676 95.2564 136.859 111.927 136.859 126.928C136.859 142.097 135.676 158.852 130.622 171.728C128.109 178.131 124.702 183.405 120.168 187.071C115.679 190.699 109.904 192.904 102.331 192.904Z" stroke="white" stroke-width="5.88672"/>
</svg>
