<svg width="343" height="254" viewBox="0 0 343 254" fill="none" xmlns="http://www.w3.org/2000/svg">
<path d="M219.65 102.655C235.507 102.655 256.097 102.48 272.244 89.889V243.908V246.851H275.187H337.081H340.024V243.908V9.71512V6.7718H337.081H275.187H273.081L272.402 8.76403C267.882 22 261.54 30.3525 253.08 35.9009C244.525 41.5128 233.516 44.4525 219.276 46.2739L216.706 46.6026V49.1934V99.712V102.655H219.65ZM3.35794 126.811C3.35794 174.547 16.9141 205.502 36.3177 224.515C55.6899 243.498 80.5073 250.197 102.321 250.197C124.623 250.197 149.531 243.505 168.87 224.513C188.235 205.494 201.618 174.536 201.618 126.811C201.618 79.4164 188.232 48.544 168.87 29.5289C149.536 10.5418 124.631 3.76074 102.321 3.76074C80.4995 3.76074 55.685 10.5485 36.3177 29.5267C16.917 48.5363 3.35794 79.4052 3.35794 126.811ZM102.321 192.788C94.8385 192.788 89.1294 190.589 84.6879 186.964C80.1973 183.299 76.8203 178.026 74.3253 171.62C69.3098 158.74 68.1276 141.981 68.1276 126.811C68.1276 111.813 69.3088 95.1373 74.3243 82.2987C76.8183 75.9139 80.1963 70.6505 84.6869 66.9903C89.1294 63.3695 94.8385 61.17 102.321 61.17C109.894 61.17 115.67 63.3743 120.158 66.9988C124.694 70.661 128.099 75.9245 130.612 82.3061C135.666 95.1407 136.848 111.812 136.848 126.811C136.848 141.981 135.666 158.736 130.611 171.613C128.098 178.016 124.692 183.289 120.157 186.955C115.669 190.584 109.894 192.788 102.321 192.788Z" stroke="white" stroke-width="5.88672"/>
</svg>
