<svg width="403" height="253" viewBox="0 0 403 253" fill="none" xmlns="http://www.w3.org/2000/svg">
<path d="M281.582 125.357L281.569 125.364L281.556 125.37C255.946 139.957 240.648 155.475 231.829 173.071C223.032 190.62 220.852 209.903 220.852 231.642V243.687V246.63H223.796H395.76H398.704V243.687V192.833V189.89H395.76H298.358C299.029 187.48 300.781 184.589 304.737 180.832C310.276 175.572 319.793 168.947 335.616 159.951C336.575 159.445 337.562 158.928 338.574 158.398C362.665 145.777 400.711 125.845 400.711 76.7399C400.711 55.129 393.339 36.6958 378.413 23.708C363.539 10.7646 341.522 3.53857 312.789 3.53857C280.439 3.53857 258.157 12.833 243.988 27.8387C229.852 42.8084 224.198 63.0317 224.198 84.1003V91.4607V94.404H227.141H287.028H289.971V91.4607V86.7768C289.971 76.1502 293.045 70.0285 296.977 66.5138C300.974 62.9411 306.353 61.617 311.785 61.617C315.782 61.617 321.36 61.8994 325.777 64.3771C327.916 65.5769 329.763 67.2835 331.049 69.7661C332.344 72.2665 333.166 75.7416 332.934 80.6147L332.932 80.6426L332.931 80.6706C332.632 91.1518 327.517 98.0938 318.512 104.588C313.956 107.874 308.479 110.986 302.211 114.339C300.142 115.445 297.981 116.582 295.746 117.757C291.274 120.108 286.504 122.615 281.582 125.357ZM3.86284 126.59C3.86284 174.324 17.419 205.28 36.8226 224.293C56.1948 243.275 81.0122 249.976 102.825 249.976C125.129 249.976 150.036 243.282 169.375 224.291C188.74 205.272 202.123 174.314 202.123 126.59C202.123 79.1942 188.737 48.3219 169.375 29.3067C150.041 10.3196 125.137 3.53857 102.825 3.53857C81.0044 3.53857 56.1909 10.3264 36.8226 29.3045C17.4219 48.3142 3.86284 79.1831 3.86284 126.59ZM102.825 192.566C95.3434 192.566 89.6353 190.367 85.1927 186.741C80.7031 183.077 77.3252 177.804 74.8302 171.399C69.8147 158.518 68.6324 141.758 68.6324 126.59C68.6324 111.591 69.8137 94.9151 74.8292 82.0765C77.3232 75.6917 80.7012 70.4283 85.1918 66.7681C89.6343 63.1473 95.3434 60.9478 102.825 60.9478C110.399 60.9478 116.175 63.1522 120.663 66.7767C125.199 70.4388 128.604 75.7023 131.117 82.0839C136.171 94.9185 137.353 111.59 137.353 126.59C137.353 141.759 136.171 158.514 131.116 171.391C128.603 177.794 125.197 183.067 120.662 186.734C116.174 190.362 110.399 192.566 102.825 192.566Z" stroke="white" stroke-width="5.88672"/>
</svg>
