<svg width="340" height="105" viewBox="0 0 340 105" fill="none" xmlns="http://www.w3.org/2000/svg">
<path d="M310.301 66.0183C314.663 66.0183 319.082 64.5454 322.311 61.9961C322.368 61.9394 322.368 61.8827 322.311 61.8827L319.139 58.0304C319.082 57.9737 319.026 57.9737 319.026 58.0304C316.363 59.8999 313.474 60.863 310.415 60.863C305.825 60.863 303.049 58.7102 302.369 54.6879L302.313 54.2346H322.991V52.8183C322.991 45.2269 316.872 38.9951 309.395 38.9385C309.338 38.9385 309.281 38.9385 309.224 38.9385C305.145 38.9385 301.52 40.2981 298.971 42.8475C296.534 45.2836 295.175 48.7394 295.175 52.4784C295.232 60.693 301.123 66.0183 310.301 66.0183ZM302.88 48.8526C303.843 45.8501 306.108 44.2071 309.224 44.2071C312.34 44.2071 314.55 45.8501 315.57 48.8526C315.683 49.1359 315.627 49.4191 315.456 49.6458C315.287 49.8724 315.003 50.0423 314.72 50.0423H303.786C303.503 50.0423 303.22 49.8724 303.049 49.6458C302.823 49.4191 302.767 49.1359 302.88 48.8526Z" fill="#0033FF"/>
<path d="M268.605 52.5907C268.605 60.2954 274.837 66.1306 283.165 66.1306C287.244 66.1306 290.982 64.7143 293.702 62.1084V61.9384L289.849 57.7461C288.377 59.6157 286.054 60.7486 283.618 60.7486C282.371 60.7486 281.182 60.4654 280.049 59.8989C279.992 59.8989 279.935 59.8422 279.878 59.7855L279.822 59.729L279.709 59.6723C278.122 58.8791 276.819 57.4628 276.139 55.7633C275.97 55.3666 275.857 54.9701 275.743 54.5169C275.686 54.2903 275.63 54.1203 275.63 53.9503L275.573 53.6671C275.573 53.5538 275.517 53.3839 275.517 53.2706C275.517 53.1006 275.517 52.9306 275.517 52.7607C275.517 52.6474 275.517 52.5907 275.517 52.5907C275.517 52.4207 275.517 52.2508 275.517 52.0808V51.9675C275.517 51.9109 275.517 51.9109 275.517 51.8543C275.63 50.9478 275.857 49.9847 276.253 49.1349C276.31 49.0216 276.366 48.8517 276.423 48.7383C277.159 47.2654 278.293 46.189 279.653 45.4525C280.842 44.7727 282.202 44.4328 283.618 44.4328C286.054 44.4328 288.32 45.5092 289.906 47.4354L293.758 43.1298C291.04 40.5237 287.244 39.0508 283.108 39.0508C274.837 39.0508 268.605 44.886 268.605 52.5907Z" fill="#0033FF"/>
<path d="M264.752 64.8851V51.6851C264.526 45.6799 262.883 40.1279 252.856 40.1279C250.76 40.1279 248.89 40.4113 247.304 41.0344L246.737 41.261V40.2413C246.737 40.1846 246.68 40.1846 246.68 40.1846H241.072C241.016 40.1846 241.016 40.2413 241.016 40.2413V64.8851C241.016 64.9417 241.072 64.9984 241.129 64.9984H247.587C247.644 64.9984 247.7 64.9417 247.7 64.8851V51.0052C247.7 50.2121 247.813 49.4756 247.984 48.7957C248.72 46.8696 250.703 45.5099 252.912 45.4533C255.065 45.4533 257.104 46.8129 257.841 48.7392C258.068 49.4189 258.124 50.1555 258.124 50.9486V64.8285C258.124 64.8851 258.181 64.9417 258.238 64.9417L264.752 64.8851C264.752 64.9417 264.696 64.9984 264.752 64.8851Z" fill="#0033FF"/>
<path d="M211.67 40.2413V53.498C211.895 59.5031 213.539 65.055 223.566 65.055C233.764 65.055 235.237 58.2567 235.464 53.2146V40.2413C235.464 40.1846 235.406 40.1279 235.35 40.1279H228.892C228.835 40.1279 228.778 40.1846 228.778 40.2413V54.1212C228.778 54.9143 228.665 55.6507 228.495 56.3306C227.758 58.2567 225.775 59.6164 223.566 59.673C221.414 59.673 219.374 58.3134 218.638 56.3872C218.411 55.7074 218.354 54.9709 218.354 54.1777V40.2413C218.354 40.1846 218.298 40.1279 218.241 40.1279H211.782C211.726 40.1279 211.67 40.1846 211.67 40.2413Z" fill="#0033FF"/>
<path d="M192.917 38.9385C184.645 38.9385 178.357 44.7737 178.357 52.4784C178.357 60.1831 184.589 66.0183 192.917 66.0183C201.244 66.0183 207.534 60.1831 207.534 52.4784C207.534 44.717 201.244 38.9385 192.917 38.9385ZM192.917 60.4098C188.612 60.4098 185.325 57.0106 185.325 52.4784C185.325 48.0028 188.668 44.547 192.917 44.547C197.223 44.547 200.565 48.0595 200.565 52.4784C200.565 56.8973 197.166 60.4098 192.917 60.4098Z" fill="#0033FF"/>
<path d="M163.174 65.5646C170.029 65.5646 175.241 59.8994 175.241 52.4213C175.241 44.9999 169.973 39.1645 163.174 39.1645C159.549 39.1645 156.263 40.6375 153.94 43.3569L153.203 44.15V27.6075C153.203 27.5508 153.147 27.4941 153.09 27.4941H146.632C146.575 27.4941 146.519 27.5508 146.519 27.6075V64.8849C146.519 64.9415 146.575 64.9982 146.632 64.9982H152.694C152.751 64.9982 152.807 64.9415 152.807 64.8849V60.2393L153.543 61.0892C155.866 63.9784 159.266 65.5646 163.174 65.5646ZM161.758 44.8299C166.064 44.8299 169.237 48.0023 169.237 52.3646C169.237 56.6703 166.007 59.8994 161.758 59.8994C157.51 59.8994 154.167 56.6136 154.167 52.4213C154.167 48.1157 157.453 44.8299 161.758 44.8299Z" fill="#0033FF"/>
<path d="M141.307 64.9984C141.363 64.9984 141.42 64.9417 141.42 64.8851V51.6851C141.194 45.6799 139.551 40.1279 129.523 40.1279C127.427 40.1279 125.557 40.4113 123.971 41.0344L123.405 41.261V40.2413C123.405 40.1846 123.348 40.1846 123.292 40.1846H117.682C117.626 40.1846 117.626 40.2413 117.626 40.2413V64.8851C117.626 64.9417 117.682 64.9984 117.74 64.9984H124.197C124.254 64.9984 124.311 64.9417 124.311 64.8851V51.0052C124.311 50.2121 124.424 49.4756 124.594 48.7957C125.331 46.8696 127.313 45.5099 129.523 45.4533C131.676 45.4533 133.715 46.8129 134.452 48.7392C134.679 49.4189 134.735 50.1555 134.735 50.9486V64.8285C134.735 64.8851 134.792 64.9417 134.848 64.9417H141.307V64.9984Z" fill="#0033FF"/>
<path d="M88.7332 40.2413V53.498C88.9598 59.5031 90.6027 65.055 100.63 65.055C110.828 65.055 112.301 58.2567 112.527 53.2146V40.2413C112.527 40.1846 112.47 40.1279 112.414 40.1279H105.955C105.899 40.1279 105.842 40.1846 105.842 40.2413V54.1212C105.842 54.9143 105.729 55.6507 105.559 56.3306C104.822 58.2567 102.839 59.6164 100.63 59.673C98.4778 59.673 96.4379 58.3134 95.7014 56.3872C95.4748 55.7074 95.4181 54.9709 95.4181 54.1777V40.2413C95.4181 40.1846 95.3615 40.1279 95.3049 40.1279H88.8465C88.7332 40.1279 88.7332 40.1846 88.7332 40.2413Z" fill="#0033FF"/>
<path d="M48.0568 22.3955C31.4009 22.3955 17.9177 35.8788 17.9177 52.5346C17.9177 69.1905 31.4009 82.6737 48.0568 82.6737C64.7126 82.6737 78.1959 69.1905 78.1959 52.5346C78.1959 35.8788 64.7126 22.3955 48.0568 22.3955ZM46.9804 64.375L44.771 70.89C44.7143 71.1166 44.601 71.2866 44.4876 71.4565C44.2044 71.9097 43.8644 72.2497 43.4112 72.4763C43.0147 72.7029 42.5615 72.8162 42.1082 72.8162C41.825 72.8162 41.485 72.7596 41.2018 72.6463C39.9554 72.1931 39.1623 70.9467 39.3323 69.7003C33.1004 66.5278 28.8515 60.0128 28.8515 52.5346C28.8515 41.884 37.4628 33.2162 48.1701 33.2162C49.4164 33.2162 50.6062 33.3294 51.7958 33.556C52.4757 32.4796 53.8353 31.9697 55.0816 32.3663C55.7615 32.5929 56.2714 33.0462 56.6113 33.6127C56.8946 34.1226 57.0645 34.6891 57.0078 35.3122C57.0078 35.5389 56.9512 35.7654 56.8946 35.9354L54.6851 42.4505L46.9804 64.375ZM49.4164 71.7965L52.0791 63.7518C56.6679 62.1089 59.9537 57.7466 59.9537 52.5346C59.9537 50.0986 59.2173 47.7758 57.9143 45.9063L60.5769 37.8616C64.7126 41.3741 67.3752 46.6427 67.3752 52.5346C67.3186 62.7321 59.444 71.06 49.4164 71.7965Z" fill="#0033FF"/>
<path d="M36.1597 52.5347C36.1597 56.727 38.3692 60.4094 41.655 62.5622L49.1332 40.6944C48.7932 40.6377 48.3967 40.6377 48.0568 40.6377C41.4851 40.6377 36.1597 45.963 36.1597 52.5347Z" fill="#0033FF"/>
</svg>
